<svg xmlns="http://www.w3.org/2000/svg" xmlns:xlink="http://www.w3.org/1999/xlink" width="200" zoomAndPan="magnify" viewBox="0 0 375 374.999991" height="200" preserveAspectRatio="xMidYMid meet" version="1.0"><defs><g/><clipPath id="id1"><path d="M 136.132812 115 L 238.882812 115 L 238.882812 192.753906 L 136.132812 192.753906 Z M 136.132812 115 " clip-rule="nonzero"/></clipPath></defs><g clip-path="url(#id1)"><path fill="#ffffff" d="M 230.679688 166.253906 L 192.78125 189.300781 C 188.355469 191.992188 183.019531 192.078125 178.507812 189.535156 C 175.707031 187.953125 173.605469 185.570312 172.414062 182.75 L 197.613281 167.425781 C 202.289062 164.582031 205.078125 159.617188 205.078125 154.136719 C 205.078125 148.660156 202.289062 143.691406 197.613281 140.851562 L 172.414062 125.527344 C 173.605469 122.703125 175.707031 120.324219 178.507812 118.742188 C 180.695312 117.507812 183.074219 116.890625 185.453125 116.890625 C 187.976562 116.890625 190.5 117.589844 192.78125 118.976562 L 230.679688 142.023438 C 234.941406 144.613281 237.488281 149.144531 237.488281 154.136719 C 237.488281 159.132812 234.941406 163.664062 230.679688 166.253906 Z M 169.9375 182.65625 L 159.007812 189.300781 C 154.582031 191.992188 149.246094 192.078125 144.734375 189.535156 C 140.222656 186.988281 137.53125 182.371094 137.53125 177.183594 L 137.53125 170.585938 L 152.4375 170.585938 C 152.757812 172.421875 154.359375 173.816406 156.28125 173.816406 L 169.9375 173.816406 Z M 137.53125 154.824219 L 152.4375 154.824219 C 152.757812 156.660156 154.355469 158.050781 156.28125 158.050781 L 169.9375 158.050781 L 169.9375 165.988281 L 156.28125 165.988281 C 154.359375 165.988281 152.757812 167.378906 152.4375 169.214844 L 137.53125 169.214844 Z M 137.53125 139.058594 L 152.4375 139.058594 C 152.757812 140.894531 154.359375 142.289062 156.28125 142.289062 L 169.9375 142.289062 L 169.9375 150.222656 L 156.28125 150.222656 C 154.359375 150.222656 152.757812 151.617188 152.4375 153.453125 L 137.53125 153.453125 Z M 137.53125 131.089844 C 137.53125 125.902344 140.222656 121.285156 144.734375 118.742188 C 146.921875 117.507812 149.300781 116.890625 151.675781 116.890625 C 154.203125 116.890625 156.726562 117.585938 159.007812 118.976562 L 169.9375 125.625 L 169.9375 134.460938 L 156.28125 134.460938 C 154.359375 134.460938 152.757812 135.851562 152.4375 137.6875 L 137.53125 137.6875 Z M 231.390625 140.851562 L 193.492188 117.804688 C 188.636719 114.851562 182.785156 114.757812 177.839844 117.546875 C 174.824219 119.246094 172.550781 121.792969 171.234375 124.808594 L 159.714844 117.804688 C 154.863281 114.851562 149.011719 114.757812 144.0625 117.546875 C 139.117188 120.335938 136.164062 125.402344 136.164062 131.089844 L 136.164062 177.183594 C 136.164062 182.875 139.117188 187.9375 144.0625 190.726562 C 146.460938 192.082031 149.070312 192.757812 151.675781 192.757812 C 154.449219 192.757812 157.214844 191.992188 159.714844 190.472656 L 171.234375 183.46875 C 172.550781 186.484375 174.824219 189.027344 177.839844 190.726562 C 180.234375 192.082031 182.847656 192.757812 185.453125 192.757812 C 188.222656 192.757812 190.988281 191.992188 193.492188 190.472656 L 231.390625 167.425781 C 236.0625 164.582031 238.855469 159.617188 238.855469 154.136719 C 238.855469 148.660156 236.0625 143.691406 231.390625 140.851562 " fill-opacity="1" fill-rule="nonzero"/></g><g fill="#ffffff" fill-opacity="1"><g transform="translate(113.524216, 237.137591)"><g><path d="M 22.625 0 L 22.59375 -15.296875 L 15 -2.546875 L 13.625 -2.546875 L 6.03125 -15.203125 L 6.03125 0 L 3.15625 0 L 3.15625 -21 L 5.609375 -21 L 14.375 -6.234375 L 23.015625 -21 L 25.46875 -21 L 25.5 0 Z M 22.625 0 "/></g></g></g><g fill="#ffffff" fill-opacity="1"><g transform="translate(144.574189, 237.137591)"><g><path d="M 18.390625 -2.609375 L 18.390625 0 L 3.15625 0 L 3.15625 -21 L 17.96875 -21 L 17.96875 -18.390625 L 6.15625 -18.390625 L 6.15625 -11.9375 L 16.6875 -11.9375 L 16.6875 -9.390625 L 6.15625 -9.390625 L 6.15625 -2.609375 Z M 18.390625 -2.609375 "/></g></g></g><g fill="#ffffff" fill-opacity="1"><g transform="translate(167.074167, 237.137591)"><g><path d="M 3.15625 -21 L 6.15625 -21 L 6.15625 -2.609375 L 17.515625 -2.609375 L 17.515625 0 L 3.15625 0 Z M 3.15625 -21 "/></g></g></g><g fill="#ffffff" fill-opacity="1"><g transform="translate(187.294154, 237.137591)"><g><path d="M 12.625 0.234375 C 10.507812 0.234375 8.597656 -0.226562 6.890625 -1.15625 C 5.191406 -2.082031 3.859375 -3.363281 2.890625 -5 C 1.921875 -6.644531 1.4375 -8.476562 1.4375 -10.5 C 1.4375 -12.519531 1.921875 -14.347656 2.890625 -15.984375 C 3.859375 -17.628906 5.191406 -18.914062 6.890625 -19.84375 C 8.597656 -20.769531 10.507812 -21.234375 12.625 -21.234375 C 14.726562 -21.234375 16.628906 -20.769531 18.328125 -19.84375 C 20.023438 -18.914062 21.351562 -17.632812 22.3125 -16 C 23.28125 -14.375 23.765625 -12.539062 23.765625 -10.5 C 23.765625 -8.457031 23.28125 -6.617188 22.3125 -4.984375 C 21.351562 -3.359375 20.023438 -2.082031 18.328125 -1.15625 C 16.628906 -0.226562 14.726562 0.234375 12.625 0.234375 Z M 12.625 -2.4375 C 14.164062 -2.4375 15.550781 -2.785156 16.78125 -3.484375 C 18.007812 -4.179688 18.976562 -5.144531 19.6875 -6.375 C 20.40625 -7.601562 20.765625 -8.976562 20.765625 -10.5 C 20.765625 -12.019531 20.40625 -13.394531 19.6875 -14.625 C 18.976562 -15.851562 18.007812 -16.816406 16.78125 -17.515625 C 15.550781 -18.210938 14.164062 -18.5625 12.625 -18.5625 C 11.082031 -18.5625 9.6875 -18.210938 8.4375 -17.515625 C 7.1875 -16.816406 6.207031 -15.851562 5.5 -14.625 C 4.789062 -13.394531 4.4375 -12.019531 4.4375 -10.5 C 4.4375 -8.976562 4.789062 -7.601562 5.5 -6.375 C 6.207031 -5.144531 7.1875 -4.179688 8.4375 -3.484375 C 9.6875 -2.785156 11.082031 -2.4375 12.625 -2.4375 Z M 12.625 -2.4375 "/></g></g></g><g fill="#ffffff" fill-opacity="1"><g transform="translate(214.894132, 237.137591)"><g><path d="M 3.15625 -21 L 12 -21 C 14.21875 -21 16.1875 -20.554688 17.90625 -19.671875 C 19.625 -18.796875 20.957031 -17.5625 21.90625 -15.96875 C 22.863281 -14.382812 23.34375 -12.5625 23.34375 -10.5 C 23.34375 -8.4375 22.863281 -6.609375 21.90625 -5.015625 C 20.957031 -3.429688 19.625 -2.195312 17.90625 -1.3125 C 16.1875 -0.4375 14.21875 0 12 0 L 3.15625 0 Z M 11.8125 -2.609375 C 13.519531 -2.609375 15.015625 -2.9375 16.296875 -3.59375 C 17.585938 -4.257812 18.582031 -5.1875 19.28125 -6.375 C 19.988281 -7.5625 20.34375 -8.9375 20.34375 -10.5 C 20.34375 -12.0625 19.988281 -13.4375 19.28125 -14.625 C 18.582031 -15.8125 17.585938 -16.734375 16.296875 -17.390625 C 15.015625 -18.054688 13.519531 -18.390625 11.8125 -18.390625 L 6.15625 -18.390625 L 6.15625 -2.609375 Z M 11.8125 -2.609375 "/></g></g></g><g fill="#ffffff" fill-opacity="1"><g transform="translate(242.0741, 237.137591)"><g><path d="M 11.1875 -7.265625 L 11.1875 0 L 8.21875 0 L 8.21875 -7.3125 L -0.125 -21 L 3.09375 -21 L 9.8125 -9.9375 L 16.5625 -21 L 19.53125 -21 Z M 11.1875 -7.265625 "/></g></g></g></svg>