<?xml version="1.0" standalone="no"?>
<!DOCTYPE svg PUBLIC "-//W3C//DTD SVG 20010904//EN"
 "http://www.w3.org/TR/2001/REC-SVG-20010904/DTD/svg10.dtd">
<svg version="1.0" xmlns="http://www.w3.org/2000/svg"
 width="466.000000pt" height="417.000000pt" viewBox="0 0 466.000000 417.000000"
 preserveAspectRatio="xMidYMid meet">

<g transform="translate(0.000000,417.000000) scale(0.100000,-0.100000)"
fill="#000000" stroke="none">
<path d="M2835 3100 c3 -5 -1 -10 -10 -10 -9 0 -14 -4 -10 -9 3 -5 -4 -17 -16
-25 l-22 -15 31 -69 c41 -87 52 -149 52 -282 0 -118 1 -120 62 -120 l31 0 -6
158 c-6 163 -18 228 -62 328 -15 33 -30 54 -40 54 -9 0 -13 -4 -10 -10z"/>
<path d="M2627 1510 c-60 -16 -111 -46 -151 -91 -50 -54 -73 -109 -87 -203
-28 -188 48 -366 184 -427 74 -34 210 -34 282 -1 105 48 172 155 190 303 8 67
-8 186 -35 245 -27 62 -93 128 -152 154 -58 25 -172 35 -231 20z m164 -163
c55 -36 80 -99 80 -201 0 -147 -58 -236 -154 -236 -104 0 -158 83 -158 241 0
65 5 91 23 128 29 58 77 91 133 91 27 0 54 -8 76 -23z"/>
<path d="M410 1140 l0 -370 76 0 77 0 -5 237 -5 237 19 -55 c25 -68 84 -227
110 -296 l19 -53 49 0 48 0 62 168 c93 253 93 253 95 250 1 -2 -1 -34 -6 -73
-4 -38 -8 -148 -8 -242 l-1 -173 75 0 75 0 0 370 0 370 -89 0 -89 0 -26 -72
c-15 -40 -51 -143 -80 -228 -30 -85 -56 -148 -59 -140 -12 39 -132 379 -144
408 l-13 32 -90 0 -90 0 0 -370z"/>
<path d="M1265 1497 c-3 -6 -4 -172 -3 -367 l3 -355 235 0 235 0 3 68 3 67
-58 1 c-32 1 -101 3 -153 3 l-95 2 -3 82 -3 82 126 0 125 0 0 70 0 70 -125 0
-125 0 0 70 0 70 145 0 145 0 0 75 0 75 -225 0 c-172 0 -227 -3 -230 -13z"/>
<path d="M1880 1140 l0 -370 225 0 225 0 0 70 0 70 -139 0 c-117 0 -140 2
-145 16 -3 9 -6 144 -6 300 l0 284 -80 0 -80 0 0 -370z"/>
<path d="M3185 1497 c-3 -6 -4 -172 -3 -367 l3 -355 100 -3 c194 -6 311 25
381 100 80 84 111 223 83 373 -27 149 -123 233 -290 255 -111 14 -269 13 -274
-3z m270 -138 c84 -23 127 -92 129 -209 2 -155 -69 -240 -201 -240 l-33 0 0
230 0 230 33 0 c17 0 50 -5 72 -11z"/>
<path d="M3780 1502 c0 -5 50 -114 110 -242 l110 -235 0 -128 0 -128 83 3 82
3 5 140 5 140 103 218 c56 120 102 222 102 228 0 6 -33 9 -86 7 l-87 -3 -60
-157 c-33 -86 -63 -155 -67 -153 -3 2 -32 74 -65 159 l-58 156 -89 0 c-48 0
-88 -4 -88 -8z"/>
</g>
</svg>
